<?xml version="1.0" encoding="UTF-8"?>
<svg width="108px" height="24px" viewBox="0 0 108 24" version="1.1" xmlns="http://www.w3.org/2000/svg" xmlns:xlink="http://www.w3.org/1999/xlink">
    <title>Group</title>
    <g id="Page-1" stroke="none" stroke-width="1" fill="none" fill-rule="evenodd">
        <g id="Group" fill="#FFFFFF" fill-rule="nonzero">
            <path d="M0.96,23 L9.856,23 L9.856,22.552 C6.656,22.136 5.696,20.792 5.696,17.56 L5.696,2.872 L5.888,2.872 L14.208,23.032 L15.36,23.032 L22.816,2.872 L22.976,2.872 L22.976,20.728 C22.976,22.008 22.176,22.456 19.904,22.552 L19.904,23 L30.944,23 L30.944,22.552 C28.256,22.456 27.616,21.944 27.616,20.728 L27.616,2.968 C27.616,1.752 28.256,1.208 30.944,1.112 L30.944,0.695999 L22.784,0.695999 L16.736,17.144 L16.576,17.144 L9.984,0.695999 L0.96,0.695999 L0.96,1.112 C3.712,1.176 4.896,2.648 4.896,4.568 L4.896,17.56 C4.896,20.792 3.968,22.168 0.96,22.552 L0.96,23 Z" id="Path"></path>
            <path d="M52.128,23.352 L53.664,23.352 L53.664,6.104 C53.664,2.936 54.528,1.56 57.536,1.112 L57.536,0.695999 L48.448,0.695999 L48.448,1.112 C51.68,1.496 52.864,2.936 52.864,6.104 L52.864,16.728 L52.832,16.728 L40.512,0.695999 L32.96,0.695999 L32.96,1.112 C35.712,1.24 36.896,2.872 36.896,4.824 L36.896,17.56 C36.896,20.792 35.968,22.168 32.96,22.552 L32.96,23 L41.984,23 L41.984,22.552 C38.72,22.2 37.696,20.792 37.696,17.56 L37.696,4.728 L37.728,4.728 L52.128,23.352 Z" id="Path"></path>
            <path d="M63.6,23 L75.696,23 L75.696,22.552 C72.848,22.488 71.984,21.944 71.984,20.728 L71.984,1.272 L72.752,1.272 C75.216,1.272 77.136,3.736 79.376,8.088 L79.856,8.024 L79.696,0.695999 L59.568,0.695999 L59.376,8.024 L59.856,8.088 C62.128,3.64 64.08,1.272 66.512,1.272 L67.312,1.272 L67.312,20.728 C67.312,21.944 66.416,22.488 63.6,22.552 L63.6,23 Z" id="Path"></path>
            <path d="M102.128,23.352 L103.664,23.352 L103.664,6.104 C103.664,2.936 104.528,1.56 107.536,1.112 L107.536,0.695999 L98.448,0.695999 L98.448,1.112 C101.68,1.496 102.864,2.936 102.864,6.104 L102.864,16.728 L102.832,16.728 L90.512,0.695999 L82.96,0.695999 L82.96,1.112 C85.712,1.24 86.896,2.872 86.896,4.824 L86.896,17.56 C86.896,20.792 85.968,22.168 82.96,22.552 L82.96,23 L91.984,23 L91.984,22.552 C88.72,22.2 87.696,20.792 87.696,17.56 L87.696,4.728 L87.728,4.728 L102.128,23.352 Z" id="Path"></path>
        </g>
    </g>
</svg>